<svg role="img" viewBox="0 0 24 24" xmlns="http://www.w3.org/2000/svg">
  <title>GitHub</title>
  <path d="M12 .296c-6.63 0-12 5.373-12 12 0 5.302 3.438 9.8 8.205 11.387.6.113.82-.258.82-.577v-2.234c-3.338.727-4.033-1.416-4.033-1.416-.546-1.387-1.333-1.756-1.333-1.756-1.089-.745.083-.729.083-.729 1.205.084 1.84 1.236 1.84 1.236 1.07 1.835 2.807 1.304 3.492.997.108-.775.418-1.305.762-1.605-2.665-.305-5.466-1.332-5.466-5.93 0-1.31.468-2.381 1.235-3.221-.124-.304-.535-1.527.117-3.176 0 0 1.008-.322 3.301 1.23a11.48 11.48 0 013.003-.404c1.018.005 2.042.138 3.003.404 2.291-1.552 3.298-1.23 3.298-1.23.653 1.649.242 2.872.118 3.176.77.84 1.233 1.911 1.233 3.221 0 4.61-2.804 5.624-5.476 5.921.43.371.823 1.102.823 2.222v3.293c0 .322.218.694.825.576C20.565 22.092 24 17.592 24 12.296c0-6.627-5.373-12-12-12z"></path>
</svg>
