<svg role="img" viewBox="0 0 24 24" xmlns="http://www.w3.org/2000/svg">
  <title>LinkedIn</title>
  <path d="M20.447 20.452h-3.554v-5.569c0-1.327-.025-3.036-1.849-3.036-1.851 0-2.135 1.445-2.135 2.939v5.666H9.355V9h3.414v1.561h.049c.476-.9 1.637-1.849 3.367-1.849 3.598 0 4.264 2.368 4.264 5.455v6.285zM5.337 7.433a2.062 2.062 0 110-4.124 2.062 2.062 0 010 4.124zM6.814 20.452H3.859V9h2.955v11.452zM22.225 0H1.771C.792 0 0 .774 0 1.729v20.542C0 23.225.792 24 1.771 24h20.451C23.207 24 24 23.225 24 22.271V1.729C24 .774 23.207 0 22.225 0z"></path>
</svg>
